<?xml version="1.0" encoding="UTF-8"?>
<svg version="1.1" xmlns="http://www.w3.org/2000/svg" width="134" height="26">
<path d="M0 0 C2.64 0 5.28 0 8 0 C8.33 7.26 8.66 14.52 9 22 C12.63 16.72 16.26 11.44 20 6 C14.555 5.505 14.555 5.505 9 5 C9 3.35 9 1.7 9 0 C13.54144994 -0.11647041 18.08251394 -0.18734502 22.625 -0.25 C24.55279297 -0.30027344 24.55279297 -0.30027344 26.51953125 -0.3515625 C37.18769417 -0.46211341 37.18769417 -0.46211341 40.7734375 1.765625 C44.32441363 5.3290607 45.29699766 7.86724955 45.375 12.875 C45.276513 17.64458495 44.25953863 20.37829041 41 24 C36.55947739 26.73989693 32.06706995 26.65433029 27 26 C21.5060241 23.30120482 21.5060241 23.30120482 20.125 19.75 C20.08375 19.1725 20.0425 18.595 20 18 C19.34 18 18.68 18 18 18 C17.71125 18.763125 17.4225 19.52625 17.125 20.3125 C16 23 16 23 14 26 C10.30406029 26.41620943 6.72880913 26.13007474 3 26 C3 19.07 3 12.14 3 5 C1.35 5 -0.3 5 -2 5 C-1.34 3.35 -0.68 1.7 0 0 Z M26 7 C24.67206394 9.06700655 24.67206394 9.06700655 24 11 C25.98 11 27.96 11 30 11 C30.33 11.66 30.66 12.32 31 13 C31 12.34 31 11.68 31 11 C31.66 11 32.32 11 33 11 C33.33 11.66 33.66 12.32 34 13 C34 12.34 34 11.68 34 11 C35.98 11 37.96 11 40 11 C38.549046 7.17475764 36.61818068 5.80909034 33 4 C30.01312767 4 28.41423204 5.31003757 26 7 Z M40 11 C41 15 41 15 41 15 Z M23 12 C24.41494124 17.21179783 24.41494124 17.21179783 28 21 C31.2333963 22.19125127 32.50706353 22.21780914 35.6875 20.8125 C38.07146641 18.94398579 38.77857599 17.69382557 40 15 C39.02417969 14.95101563 38.04835938 14.90203125 37.04296875 14.8515625 C35.77066406 14.77679688 34.49835938 14.70203125 33.1875 14.625 C31.92292969 14.55539062 30.65835938 14.48578125 29.35546875 14.4140625 C26 14 26 14 23 12 Z " fill="#FFFFFF" transform="translate(89,0)"/>
<path d="M0 0 C1.32 0 2.64 0 4 0 C4.99 1.98 5.98 3.96 7 6 C7.99 4.02 8.98 2.04 10 0 C10.99 0 11.98 0 13 0 C13.99 4.29 14.98 8.58 16 13 C14.68 13.33 13.36 13.66 12 14 C12 12.35 12 10.7 12 9 C11.34 9 10.68 9 10 9 C9.67 10.65 9.34 12.3 9 14 C7.68 14 6.36 14 5 14 C4.34 12.68 3.68 11.36 3 10 C2.34 11.32 1.68 12.64 1 14 C0.01 14 -0.98 14 -2 14 C-1.34 9.38 -0.68 4.76 0 0 Z " fill="#FFFFFF" transform="translate(28,6)"/>
<path d="M0 0 C4.29 0 8.58 0 13 0 C13 0.99 13 1.98 13 3 C10.03 3 7.06 3 4 3 C4 3.66 4 4.32 4 5 C6.64 5 9.28 5 12 5 C12 5.99 12 6.98 12 8 C9.36 8 6.72 8 4 8 C4 8.99 4 9.98 4 11 C6.97 11 9.94 11 13 11 C13 11.99 13 12.98 13 14 C8.71 14 4.42 14 0 14 C0 9.38 0 4.76 0 0 Z " fill="#FFFFFF" transform="translate(48,6)"/>
<path d="M0 0 C1.65 0 3.3 0 5 0 C5.33 0.99 5.66 1.98 6 3 C6.391875 2.505 6.78375 2.01 7.1875 1.5 C9.55091715 -0.45593143 11.01435003 -0.24207973 14 0 C13.195625 1.36125 13.195625 1.36125 12.375 2.75 C10.67391559 5.78322991 10.67391559 5.78322991 11.6875 8.125 C12.120625 8.74375 12.55375 9.3625 13 10 C13.66666667 11.33333333 14.33333333 12.66666667 15 14 C10.44615385 14.36923077 10.44615385 14.36923077 8.1875 12.5 C7.795625 12.005 7.40375 11.51 7 11 C6.01 12.485 6.01 12.485 5 14 C2.375 14.1875 2.375 14.1875 0 14 C1.32 11.36 2.64 8.72 4 6 C2.68 4.02 1.36 2.04 0 0 Z " fill="#FFFFFF" transform="translate(64,6)"/>
<path d="M0 0 C4.95 0 9.9 0 15 0 C15 0.66 15 1.32 15 2 C13.02 2 11.04 2 9 2 C9 5.96 9 9.92 9 14 C7.68 14 6.36 14 5 14 C5 10.04 5 6.08 5 2 C3.35 2 1.7 2 0 2 C0 1.34 0 0.68 0 0 Z " fill="#FFFFFF" transform="translate(0,6)"/>
<path d="M0 0 C1.32 0 2.64 0 4 0 C4 4.95 4 9.9 4 15 C2.68 15 1.36 15 0 15 C0 10.05 0 5.1 0 0 Z " fill="#FFFFFF" transform="translate(18,6)"/>
</svg>
