<?xml version="1.0" standalone="no"?>
<!DOCTYPE svg PUBLIC "-//W3C//DTD SVG 20010904//EN"
 "http://www.w3.org/TR/2001/REC-SVG-20010904/DTD/svg10.dtd">
<svg version="1.0" xmlns="http://www.w3.org/2000/svg"
 width="500.000000pt" height="500.000000pt" viewBox="0 0 500.000000 500.000000"
 preserveAspectRatio="xMidYMid meet">

<g transform="translate(0.000000,500.000000) scale(0.100000,-0.100000)"
fill="#000000" stroke="none">
<path d="M3830 4811 c-173 -37 -338 -127 -466 -255 -116 -116 -187 -240 -239
-416 l-22 -75 -1364 -5 c-1293 -5 -1367 -6 -1414 -23 -114 -42 -217 -128 -268
-224 -52 -98 -57 -146 -57 -643 0 -266 4 -481 10 -519 15 -88 52 -175 105
-244 l45 -58 0 -942 c0 -1038 -1 -1022 62 -1139 60 -112 163 -198 288 -241
l65 -22 1494 -3 c992 -2 1513 1 1550 8 178 33 318 170 350 344 7 41 11 367 11
1018 l0 958 43 53 c90 111 116 213 117 454 l0 143 28 5 c257 54 439 161 584
343 64 81 147 243 172 337 38 143 38 321 1 465 -75 289 -312 551 -585 646
-161 56 -348 69 -510 35z m366 -221 c322 -81 534 -355 534 -688 0 -201 -78
-374 -228 -513 -140 -129 -259 -178 -447 -186 -140 -6 -216 8 -328 61 -255
118 -407 358 -407 641 0 273 139 502 382 630 142 75 332 96 494 55z m-1089
-838 c43 -259 191 -483 416 -630 105 -68 198 -104 365 -138 22 -4 22 -6 22
-172 0 -191 -9 -234 -66 -300 -125 -146 -378 -117 -458 52 -9 20 -22 65 -27
99 -12 77 -25 105 -61 123 -44 23 -94 18 -128 -13 -26 -24 -32 -39 -41 -97
-23 -164 -124 -258 -279 -258 -148 0 -255 97 -275 247 -9 72 -22 99 -54 118
-44 26 -95 22 -131 -10 -26 -23 -33 -40 -42 -98 -25 -165 -124 -257 -276 -257
-153 0 -263 100 -279 253 -5 54 -11 69 -39 97 -26 26 -40 32 -73 32 -44 0 -85
-20 -96 -48 -4 -9 -13 -50 -20 -90 -29 -159 -126 -246 -275 -246 -64 0 -83 4
-129 29 -96 53 -151 142 -151 247 0 72 -22 116 -67 134 -30 13 -44 14 -75 5
-49 -15 -72 -51 -86 -139 -7 -40 -21 -90 -31 -110 -23 -44 -83 -103 -131 -128
-48 -26 -181 -26 -227 -1 -55 29 -103 78 -131 131 l-27 51 -3 500 c-2 348 0
512 8 538 14 49 74 115 125 138 38 18 102 18 1385 16 l1344 -2 13 -73z m-2159
-1423 c195 -178 482 -178 685 2 l47 41 52 -47 c70 -61 157 -102 256 -122 76
-15 88 -15 169 1 100 20 176 57 252 123 l52 46 32 -30 c199 -188 498 -196 693
-20 55 50 69 56 78 32 9 -24 123 -102 181 -124 81 -30 181 -44 248 -33 l57 9
0 -914 c0 -887 -1 -915 -20 -952 -24 -48 -70 -87 -118 -101 -25 -7 -260 -10
-732 -8 l-695 3 -2 700 c-1 492 -5 716 -14 755 -35 167 -180 302 -355 330 -78
13 -552 13 -634 0 -170 -27 -316 -152 -371 -318 -22 -66 -23 -72 -22 -702 0
-349 -2 -665 -5 -703 l-4 -67 -88 0 c-77 0 -94 3 -150 31 -64 33 -112 86 -137
152 -8 24 -12 266 -12 917 l-1 886 94 -4 c76 -4 108 0 163 16 72 22 171 81
212 126 14 14 26 26 29 26 2 0 29 -23 60 -51z m919 -562 c22 -15 50 -46 64
-70 l24 -42 0 -710 0 -710 -472 -3 -473 -2 0 684 c0 742 -1 727 55 801 15 19
50 46 78 60 l52 26 316 -3 316 -3 40 -28z"/>
<path d="M4205 4030 c-138 -137 -255 -250 -260 -250 -6 0 -46 36 -90 81 -139
142 -182 162 -252 119 -38 -23 -56 -74 -42 -123 10 -38 309 -340 347 -352 62
-19 78 -7 379 291 158 158 296 298 305 313 10 14 18 45 18 69 0 35 -6 49 -29
73 -24 24 -38 29 -77 29 l-48 0 -251 -250z"/>
<path d="M2810 2014 c-108 -20 -220 -83 -297 -168 -162 -177 -175 -445 -32
-636 193 -257 559 -277 783 -43 178 185 180 486 4 678 -99 109 -213 164 -352
170 -45 2 -92 2 -106 -1z m222 -257 c154 -90 189 -298 74 -435 -70 -82 -203
-115 -317 -77 -71 24 -140 93 -164 164 -22 66 -17 169 10 226 27 56 94 119
146 138 70 26 193 18 251 -16z"/>
</g>
</svg>
