<?xml version="1.0" encoding="UTF-8"?>
<svg version="1.1" xmlns="http://www.w3.org/2000/svg" width="298" height="126">
<path d="M0 0 C4.62 0 9.24 0 14 0 C13.34 2.31 12.68 4.62 12 7 C12.75925781 6.95359375 13.51851562 6.9071875 14.30078125 6.859375 C15.29464844 6.82328125 16.28851563 6.7871875 17.3125 6.75 C18.29863281 6.70359375 19.28476563 6.6571875 20.30078125 6.609375 C23 7 23 7 24.8828125 8.84765625 C26 11 26 11 25.5625 13.6875 C24 16 24 16 20.875 16.8125 C19.451875 16.9053125 19.451875 16.9053125 18 17 C18 18.32 18 19.64 18 21 C18.94875 21.103125 19.8975 21.20625 20.875 21.3125 C24 22 24 22 26 25 C25.75 27.625 25.75 27.625 25 30 C22.35541621 31.32229189 20.32238699 31.09677194 17.375 31.0625 C16.37210938 31.05347656 15.36921875 31.04445313 14.3359375 31.03515625 C13.56507813 31.02355469 12.79421875 31.01195313 12 31 C12 32.65 12 34.3 12 36 C12.66 36 13.32 36 14 36 C14 36.66 14 37.32 14 38 C9.38 38 4.76 38 0 38 C0 37.34 0 36.68 0 36 C0.99 35.505 0.99 35.505 2 35 C2.65213292 32.97536745 2.65213292 32.97536745 3 31 C2.15695313 31.01160156 1.31390625 31.02320312 0.4453125 31.03515625 C-0.65039062 31.04417969 -1.74609375 31.05320312 -2.875 31.0625 C-3.96554688 31.07410156 -5.05609375 31.08570312 -6.1796875 31.09765625 C-9 31 -9 31 -11 30 C-11.875 27.6875 -11.875 27.6875 -12 25 C-10.3125 22.6875 -10.3125 22.6875 -8 21 C-6.68 21 -5.36 21 -4 21 C-4 19.68 -4 18.36 -4 17 C-4.94875 16.938125 -5.8975 16.87625 -6.875 16.8125 C-10 16 -10 16 -11.5625 13.6875 C-12 11 -12 11 -10.8828125 8.84765625 C-9 7 -9 7 -6.30078125 6.609375 C-5.31464844 6.65578125 -4.32851562 6.7021875 -3.3125 6.75 C-2.31863281 6.78609375 -1.32476562 6.8221875 -0.30078125 6.859375 C0.45847656 6.90578125 1.21773437 6.9521875 2 7 C2 5.68 2 4.36 2 3 C1.34 2.67 0.68 2.34 0 2 C0 1.34 0 0.68 0 0 Z M6 3 C6 5.97 6 8.94 6 12 C6.66 12 7.32 12 8 12 C8 9.03 8 6.06 8 3 C7.34 3 6.68 3 6 3 Z M1 9 C0.67 9.99 0.34 10.98 0 12 C0.99 12 1.98 12 3 12 C3 11.01 3 10.02 3 9 C2.34 9 1.68 9 1 9 Z M12 9 C12 10.32 12 11.64 12 13 C12.66 13 13.32 13 14 13 C13.67 11.68 13.34 10.36 13 9 C12.67 9 12.34 9 12 9 Z M-7 10 C-7 11.32 -7 12.64 -7 14 C-6.67 12.68 -6.34 11.36 -6 10 C-6.33 10 -6.66 10 -7 10 Z M20 10 C20.33 11.32 20.66 12.64 21 14 C21 12.68 21 11.36 21 10 C20.67 10 20.34 10 20 10 Z M0 17 C0 18.32 0 19.64 0 21 C2.99738941 22.99825961 3.63347508 23.27550398 7 23.25 C7.680625 23.25515625 8.36125 23.2603125 9.0625 23.265625 C11.32416007 23.09917603 11.32416007 23.09917603 14 21 C14 19.68 14 18.36 14 17 C11.00261059 15.00174039 10.36652492 14.72449602 7 14.75 C6.319375 14.74484375 5.63875 14.7396875 4.9375 14.734375 C2.67583993 14.90082397 2.67583993 14.90082397 0 17 Z M-7 24 C-7.33 25.32 -7.66 26.64 -8 28 C-7.34 28 -6.68 28 -6 28 C-6.33 26.68 -6.66 25.36 -7 24 Z M20 24 C20 25.32 20 26.64 20 28 C20.66 28 21.32 28 22 28 C21.67 26.68 21.34 25.36 21 24 C20.67 24 20.34 24 20 24 Z M0 26 C0.33 26.99 0.66 27.98 1 29 C1.66 29 2.32 29 3 29 C3 28.01 3 27.02 3 26 C2.01 26 1.02 26 0 26 Z M6 26 C6 28.97 6 31.94 6 35 C6.66 35 7.32 35 8 35 C8 32.03 8 29.06 8 26 C7.34 26 6.68 26 6 26 Z M12 26 C12.33 26.99 12.66 27.98 13 29 C13.33 28.01 13.66 27.02 14 26 C13.34 26 12.68 26 12 26 Z " fill="#221D1E" transform="translate(142,28)"/>
<path d="M0 0 C7.35083517 5.1574408 12.18326121 11.13498757 14 20 C14.83558865 29.30395823 13.34407721 36.56038752 7.3125 43.8125 C2.46277836 48.93960424 -3.41740782 52.58027309 -10.6015625 53.23828125 C-20.91874373 53.49154539 -27.68978326 50.9582934 -35.2734375 43.93359375 C-40.77131991 37.776463 -42.344815 30.70115274 -42.203125 22.6484375 C-41.52747059 13.83894342 -37.54374114 7.82054693 -31 2 C-21.7229554 -4.08963325 -9.97932845 -5.21646714 0 0 Z M-33.4375 9.5 C-37.79154804 15.09290701 -39.38059252 21.16224613 -38.82421875 28.234375 C-37.54313206 35.73973134 -33.57145667 41.2212513 -27.625 45.875 C-21.83819013 49.63135027 -16.00726012 50.56425455 -9.2265625 49.52734375 C-1.43263809 47.68141428 3.35756745 43.40913604 8 37 C10.85008402 31.81802906 11.57604719 25.76729266 10.375 20 C8.02552211 11.98969955 3.44980736 6.56181767 -3.734375 2.42578125 C-14.66367672 -2.34598326 -25.70236235 1.02288272 -33.4375 9.5 Z " fill="#221E1F" transform="translate(163,22)"/>
<path d="M0 0 C3.29744513 0.69945806 4.7979897 1.82154528 6.93359375 4.41015625 C8.27559179 8.40280882 8.35756252 11.38370555 6.74609375 15.28515625 C4.00013906 18.5045514 2.19118396 19.27637006 -2.00390625 19.72265625 C-5.5241865 19.36344398 -7.28438442 18.57395101 -10.06640625 16.41015625 C-12.13560555 13.77662987 -12.06571347 12.37205315 -12.00390625 8.97265625 C-10.26629343 2.36972754 -6.71230207 -0.49485781 0 0 Z M-5.81640625 5.59765625 C-7.50956738 8.05273989 -7.50511645 9.48542156 -7.06640625 12.41015625 C-6.06640625 14.41015625 -6.06640625 14.41015625 -4.06640625 15.41015625 C-0.94647019 15.33473284 -0.94647019 15.33473284 1.93359375 14.41015625 C3.32790879 11.62152618 3.19019469 9.48936757 2.93359375 6.41015625 C-0.26763448 4.27600409 -2.38929609 3.27211721 -5.81640625 5.59765625 Z " fill="#221E1F" transform="translate(247.06640625,85.58984375)"/>
<path d="M0 0 C3.05067422 1.99227704 4.59426669 3.33682874 5.47265625 6.9375 C5.76710023 10.92381856 5.26446048 12.63442228 2.875 15.9375 C-0.35208593 18.25258338 -2.03760154 19 -6 19 C-9.97472063 17.47126129 -11.61853665 16.57219503 -14 13 C-14.46193077 8.01114768 -14.06738634 5.01119752 -11 1 C-7.51069104 -0.74465448 -3.80713023 -0.56450552 0 0 Z M-7.8125 5.1875 C-10.20007295 7.68609845 -10.20007295 7.68609845 -10.0625 10.125 C-8.66252996 12.59553537 -7.55196811 13.72401595 -5 15 C-2.22941974 14.74183257 -2.22941974 14.74183257 0 13 C1.08223366 10.08995097 1.08223366 10.08995097 1 7 C-0.66522058 4.00322742 -0.66522058 4.00322742 -2.8125 3 C-5.3060567 2.77616748 -5.3060567 2.77616748 -7.8125 5.1875 Z " fill="#211D1E" transform="translate(104,87)"/>
<path d="M0 0 C3.19892281 1.5994614 5.15353735 2.82812919 7.75 5.125 C8.67039062 5.93324219 8.67039062 5.93324219 9.609375 6.7578125 C10.06828125 7.16773437 10.5271875 7.57765625 11 8 C11.33 5.36 11.66 2.72 12 0 C13.32 0 14.64 0 16 0 C16 6.27 16 12.54 16 19 C7.83035714 12.97321429 7.83035714 12.97321429 5 10 C4.67 12.64 4.34 15.28 4 18 C2.68 18 1.36 18 0 18 C0 12.06 0 6.12 0 0 Z " fill="#221E1F" transform="translate(60,87)"/>
<path d="M0 0 C8 0 8 0 10.0625 1.0625 C11.55238061 4.1415866 10.67482518 6.74856958 10 10 C9.34 10 8.68 10 8 10 C8.3609375 10.48210937 8.721875 10.96421875 9.09375 11.4609375 C9.5578125 12.09257813 10.021875 12.72421875 10.5 13.375 C10.9640625 14.00148438 11.428125 14.62796875 11.90625 15.2734375 C13 17 13 17 13 19 C10.6875 19.25 10.6875 19.25 8 19 C6.1875 17 6.1875 17 5 15 C4.67 16.32 4.34 17.64 4 19 C2.68 19 1.36 19 0 19 C0 12.73 0 6.46 0 0 Z M4 4 C4 4.99 4 5.98 4 7 C4.99 6.67 5.98 6.34 7 6 C6.67 5.34 6.34 4.68 6 4 C5.34 4 4.68 4 4 4 Z " fill="#221E1F" transform="translate(186,86)"/>
<path d="M0 0 C8 0 8 0 10.0625 1.0625 C11.5520759 4.14095685 10.64253312 6.72892232 10 10 C10 13.55955169 10.89341295 14.27899173 13 17 C13 17.66 13 18.32 13 19 C9.75791433 18.64950425 8.38472296 18.43778819 6.1875 15.9375 C5.795625 15.298125 5.40375 14.65875 5 14 C4.67 15.65 4.34 17.3 4 19 C2.68 19 1.36 19 0 19 C0 12.73 0 6.46 0 0 Z M4 4 C4 4.99 4 5.98 4 7 C4.99 7 5.98 7 7 7 C6.67 6.01 6.34 5.02 6 4 C5.34 4 4.68 4 4 4 Z " fill="#221E1F" transform="translate(211,86)"/>
<path d="M0 0 C3.63 0 7.26 0 11 0 C11 1.32 11 2.64 11 4 C9.02 4 7.04 4 5 4 C5 4.99 5 5.98 5 7 C6.98 7 8.96 7 11 7 C11 8.32 11 9.64 11 11 C9.02 11 7.04 11 5 11 C5 12.32 5 13.64 5 15 C6.98 15 8.96 15 11 15 C11 16.32 11 17.64 11 19 C7.37 19 3.74 19 0 19 C0 12.73 0 6.46 0 0 Z " fill="#221F20" transform="translate(161,86)"/>
<path d="M0 0 C1.670625 0.061875 1.670625 0.061875 3.375 0.125 C4.035 1.445 4.695 2.765 5.375 4.125 C2.36468256 5.05923645 1.50849732 5.16949911 -1.625 4.125 C-1.625 4.785 -1.625 5.445 -1.625 6.125 C-0.861875 6.393125 -0.09875 6.66125 0.6875 6.9375 C4.87151972 8.7862529 4.87151972 8.7862529 6.375 11.125 C6.15169287 14.77234979 5.99127165 16.50872835 3.375 19.125 C-0.0625 19.5625 -0.0625 19.5625 -3.625 19.125 C-5.5625 16.625 -5.5625 16.625 -6.625 14.125 C-4.01917629 13.19434867 -2.98301776 12.97582593 -0.375 14.0625 C0.2025 14.413125 0.78 14.76375 1.375 15.125 C0.64100588 11.8307621 0.64100588 11.8307621 -2.6875 10.3125 C-5.625 8.125 -5.625 8.125 -6.125 5 C-5.35803607 0.58995739 -4.46505264 0.15396733 0 0 Z " fill="#221E1F" transform="translate(273.625,85.875)"/>
<path d="M0 0 C8 0 8 0 11 2 C11.3125 5.5 11.3125 5.5 11 9 C9 11 9 11 6.375 11.125 C5.59125 11.08375 4.8075 11.0425 4 11 C4 13.64 4 16.28 4 19 C2.68 19 1.36 19 0 19 C0 12.73 0 6.46 0 0 Z M4 4 C4 4.99 4 5.98 4 7 C4.99 7 5.98 7 7 7 C6.67 6.01 6.34 5.02 6 4 C5.34 4 4.68 4 4 4 Z " fill="#221E1F" transform="translate(137,86)"/>
<path d="M0 0 C1.32 0 2.64 0 4 0 C4 4.62 4 9.24 4 14 C6.31 14 8.62 14 11 14 C11 15.32 11 16.64 11 18 C7.37 18 3.74 18 0 18 C0 12.06 0 6.12 0 0 Z " fill="#221E1F" transform="translate(18,87)"/>
<path d="M0 0 C1.32 0 2.64 0 4 0 C4 5.94 4 11.88 4 18 C2.68 18 1.36 18 0 18 C0 12.06 0 6.12 0 0 Z " fill="#231F1F" transform="translate(41,87)"/>
</svg>
