<?xml version="1.0" standalone="no"?>
<!DOCTYPE svg PUBLIC "-//W3C//DTD SVG 20010904//EN"
 "http://www.w3.org/TR/2001/REC-SVG-20010904/DTD/svg10.dtd">
<svg version="1.0" xmlns="http://www.w3.org/2000/svg"
 width="500.000000pt" height="500.000000pt" viewBox="0 0 500.000000 500.000000"
 preserveAspectRatio="xMidYMid meet">

<g transform="translate(0.000000,500.000000) scale(0.100000,-0.100000)"
fill="#000000" stroke="none">
<path d="M2270 4359 c-642 -74 -1180 -455 -1460 -1034 -32 -66 -73 -164 -91
-217 -31 -93 -32 -97 -15 -123 35 -54 100 -51 128 6 10 19 37 83 60 142 49
128 140 294 223 409 81 112 260 288 375 370 182 129 423 232 648 278 507 102
1067 -30 1458 -344 343 -276 558 -667 619 -1125 8 -58 15 -124 15 -145 l0 -40
-94 92 c-81 80 -98 92 -128 92 -43 0 -69 -26 -70 -70 -1 -28 18 -51 168 -201
154 -154 172 -169 204 -169 31 0 49 15 202 168 156 156 168 170 168 204 0 43
-27 68 -75 68 -25 0 -46 -16 -120 -90 -49 -49 -92 -90 -95 -90 -3 0 -11 57
-18 128 -82 843 -649 1487 -1462 1660 -188 40 -448 53 -640 31z"/>
<path d="M2370 3575 c-228 -43 -414 -220 -479 -455 -26 -91 -28 -247 -6 -335
50 -197 206 -368 398 -435 324 -114 705 65 817 383 62 177 43 378 -52 545 -43
77 -149 181 -228 224 -135 75 -301 102 -450 73z"/>
<path d="M488 2552 c-148 -147 -168 -172 -168 -200 0 -42 30 -72 73 -72 28 0
46 13 122 90 49 50 92 90 95 90 3 0 11 -57 18 -127 75 -807 612 -1446 1379
-1643 283 -72 614 -79 908 -18 631 129 1144 586 1365 1215 29 82 31 96 20 122
-14 36 -59 55 -95 41 -27 -10 -32 -19 -99 -188 -55 -141 -141 -297 -226 -410
-87 -117 -255 -282 -370 -364 -318 -225 -737 -339 -1127 -308 -856 68 -1487
660 -1599 1500 -7 58 -14 123 -14 144 l0 40 94 -92 c81 -80 98 -92 128 -92 44
0 71 28 70 72 -1 28 -23 55 -169 200 -153 151 -173 168 -203 168 -31 0 -51
-16 -202 -168z"/>
<path d="M1886 2292 c-116 -69 -257 -207 -298 -290 -90 -183 -17 -427 160
-533 35 -21 86 -42 113 -48 66 -14 1185 -15 1260 -1 169 32 301 171 329 347
27 168 -86 359 -294 498 -127 84 -125 83 -181 40 -67 -51 -170 -101 -262 -127
-112 -32 -314 -32 -426 0 -92 26 -195 76 -260 126 -26 20 -51 36 -55 36 -4 0
-42 -22 -86 -48z"/>
</g>
</svg>
