<?xml version="1.0" standalone="no"?>
<!DOCTYPE svg PUBLIC "-//W3C//DTD SVG 20010904//EN"
 "http://www.w3.org/TR/2001/REC-SVG-20010904/DTD/svg10.dtd">
<svg version="1.0" xmlns="http://www.w3.org/2000/svg"
 width="512.000000pt" height="512.000000pt" viewBox="0 0 512.000000 512.000000"
 preserveAspectRatio="xMidYMid meet">

<g transform="translate(0.000000,512.000000) scale(0.100000,-0.100000)"
fill="#000000" stroke="none">
<path d="M1040 4655 c-293 -59 -518 -272 -590 -559 -19 -76 -20 -113 -20 -942
0 -932 0 -930 54 -1064 79 -194 261 -363 461 -426 110 -35 190 -43 408 -44
155 0 195 3 223 16 61 29 84 111 49 172 -33 55 -40 56 -310 63 -270 6 -291 9
-398 72 -112 66 -213 211 -236 341 -7 39 -11 338 -11 870 0 886 0 877 59 994
60 118 174 213 306 255 l70 22 1435 0 c1365 0 1438 -1 1495 -18 208 -64 366
-223 404 -405 6 -29 11 -144 11 -255 0 -222 3 -237 59 -274 40 -27 71 -29 116
-7 64 30 67 48 63 334 -4 233 -6 260 -27 320 -46 131 -112 231 -215 327 -115
108 -277 187 -436 212 -104 17 -2886 13 -2970 -4z"/>
<path d="M2176 3888 c-25 -7 -58 -29 -87 -58 -81 -81 -80 -72 -77 -706 l3
-549 31 -55 c43 -76 97 -112 173 -118 32 -2 76 1 96 8 51 17 744 558 770 601
63 106 59 222 -12 305 -28 34 -704 545 -741 561 -46 19 -110 24 -156 11z m412
-500 c166 -126 302 -231 302 -233 0 -2 -123 -99 -272 -216 -150 -117 -292
-228 -315 -247 l-43 -34 0 486 c0 387 3 486 13 480 6 -4 148 -111 315 -236z"/>
<path d="M4100 2486 c-199 -56 -330 -226 -330 -430 l0 -71 -321 -194 c-251
-151 -325 -192 -338 -184 -9 5 -178 107 -377 226 -326 197 -364 217 -405 217
-51 0 -82 -18 -104 -60 -21 -41 -19 -82 8 -120 19 -29 277 -192 645 -409 9 -5
-98 -74 -308 -200 -337 -202 -360 -220 -360 -286 0 -74 80 -137 147 -117 18 5
198 110 401 232 l369 221 321 -193 321 -193 1 -51 c0 -112 73 -258 161 -325
186 -142 430 -129 592 32 175 175 175 454 0 627 -174 172 -446 173 -620 2
l-51 -50 -224 134 c-123 74 -232 141 -242 149 -17 13 1 26 233 165 138 84 254
152 257 152 4 0 27 -18 51 -41 91 -83 228 -123 353 -101 294 50 456 359 331
627 -89 190 -313 296 -511 241z m212 -258 c73 -42 111 -131 94 -223 -8 -39
-64 -108 -105 -129 -130 -66 -292 35 -291 181 1 77 72 174 138 189 15 3 32 7
37 10 21 7 90 -8 127 -28z m-11 -1153 c39 -21 87 -75 100 -113 6 -19 9 -58 7
-88 -9 -103 -91 -177 -197 -177 -86 0 -152 45 -185 125 -69 165 115 334 275
253z"/>
</g>
</svg>
